<svg xmlns="http://www.w3.org/2000/svg" xmlns:xlink="http://www.w3.org/1999/xlink" width="500" zoomAndPan="magnify" viewBox="0 0 375 374.999991" height="500" preserveAspectRatio="xMidYMid meet" version="1.0"><defs><g/></defs><path stroke-linecap="butt" transform="matrix(0.40395, 0, 0, 0.40395, 135.503813, 160.94476)" fill="none" stroke-linejoin="miter" d="M 167.738409 108.780727 C 167.912471 109.119182 167.999502 109.602689 167.999502 110.231248 C 167.999502 111.024199 167.748079 111.691438 167.254902 112.223296 C 166.781065 112.745483 166.162176 112.996907 165.388565 112.996907 L 139.762705 112.996907 C 137.915709 112.996907 136.726283 112.078244 136.184755 110.231248 L 123.777971 76.163359 C 123.516877 75.447769 123.081721 74.925582 122.453162 74.577457 C 121.853613 74.239002 120.92528 74.064939 119.677833 74.064939 L 113.624328 74.064939 C 113.0828 74.064939 112.686325 74.239002 112.434901 74.577457 C 112.173807 74.925582 112.048096 75.235026 112.048096 75.51546 L 112.048096 109.167533 C 112.048096 110.579373 111.690301 111.585067 110.984381 112.165275 C 110.268791 112.716473 109.176065 112.996907 107.696534 112.996907 L 85.484232 112.996907 C 84.178764 112.996907 83.269771 112.745483 82.776594 112.223296 C 82.302757 111.691438 82.070674 110.850137 82.070674 109.709061 L 82.070674 18.074852 C 82.070674 16.053794 82.902306 15.0481 84.584909 15.0481 L 128.671059 15.0481 C 141.435639 15.0481 151.337858 17.484974 158.358377 22.368393 C 165.407906 27.242141 168.927835 34.127278 168.927835 43.023803 C 168.927835 49.106319 167.322593 54.521595 164.092767 59.269631 C 160.891952 64.017668 156.753134 67.363535 151.656972 69.297562 C 151.115445 69.577996 150.854351 70.013152 150.854351 70.612701 C 150.854351 70.873795 150.931712 71.27027 151.105775 71.811798 Z M 127.481633 54.366872 C 130.83717 54.366872 133.409426 53.525571 135.217741 51.823627 C 137.026057 50.102343 137.925379 47.78151 137.925379 44.861129 C 137.925379 41.621633 136.842324 39.097728 134.666544 37.289412 C 132.519773 35.481097 129.860486 34.581774 126.679011 34.581774 L 115.074848 34.581774 C 113.933772 34.581774 113.140821 34.784847 112.686325 35.190993 C 112.260839 35.577798 112.048096 36.254708 112.048096 37.221721 L 112.048096 51.601214 C 112.048096 52.568227 112.193148 53.274147 112.492922 53.728643 C 112.792696 54.154129 113.382574 54.366872 114.272227 54.366872 Z M 179.632676 18.074852 C 179.632676 16.053794 180.464307 15.0481 182.137241 15.0481 L 253.435153 15.0481 C 255.011385 15.0481 255.794666 15.976433 255.794666 17.823429 L 255.659285 33.131254 C 255.659285 35.519778 254.527879 36.709204 252.245727 36.709204 L 212.63685 36.709204 C 210.615791 36.709204 209.600427 37.531166 209.600427 39.194429 L 209.600427 50.402117 C 209.600427 51.291769 209.82284 51.978349 210.248326 52.471526 C 210.702823 52.964703 211.283031 53.206456 211.988951 53.206456 L 235.738805 53.206456 C 237.595471 53.206456 238.514134 54.076768 238.514134 55.817393 L 238.514134 72.198603 C 238.514134 73.697474 237.721182 74.451745 236.12561 74.451745 L 211.698847 74.451745 C 211.099298 74.451745 210.596451 74.635477 210.180635 75.002943 C 209.79383 75.341397 209.600427 75.776553 209.600427 76.289071 L 209.600427 89.498476 C 209.600427 90.214066 209.706799 90.697573 209.929212 90.948997 C 210.141955 91.21009 210.557771 91.335802 211.186329 91.335802 L 254.083052 91.335802 C 256.01708 91.335802 256.984093 92.177104 256.984093 93.850038 L 256.984093 110.095866 C 256.984093 110.975848 256.713329 111.691438 256.181472 112.223296 C 255.659285 112.745483 254.876004 112.996907 253.821959 112.996907 L 183.200956 112.996907 C 181.876147 112.996907 180.938144 112.745483 180.406287 112.223296 C 179.884099 111.691438 179.632676 110.850137 179.632676 109.709061 Z M 312.171559 13.723291 C 319.482182 13.723291 326.077215 15.028759 331.966327 17.630026 C 337.87478 20.202282 342.719519 23.780232 346.500542 28.363877 C 350.281565 32.937851 352.74745 38.179065 353.878855 44.087518 C 354.159289 45.141563 354.304341 45.982865 354.304341 46.601753 C 354.304341 47.394704 354.139949 47.926562 353.820835 48.177985 C 353.52106 48.439079 352.969863 48.613142 352.176912 48.700173 L 329.065287 50.150693 C 328.185304 50.150693 327.614766 49.995971 327.353673 49.696197 C 327.102249 49.396423 326.831485 48.709843 326.551051 47.636458 C 325.77744 43.420279 324.32692 40.113092 322.19949 37.705228 C 320.0914 35.278024 317.016297 34.069257 312.98385 34.069257 C 307.781317 34.069257 303.768211 36.351409 300.954201 40.935054 C 298.140192 45.509028 296.738022 52.945362 296.738022 63.234387 C 296.738022 73.871537 298.02415 81.433583 300.606076 85.930196 C 303.207343 90.417139 307.27847 92.660611 312.819458 92.660611 C 317.499804 92.660611 321.49357 91.480854 324.781416 89.111671 C 328.088603 86.732817 330.834921 82.768062 333.030042 77.227074 C 333.281466 76.424453 334.035736 76.027977 335.283184 76.027977 C 335.882732 76.027977 336.366239 76.076328 336.733704 76.163359 L 353.240626 79.480216 C 354.546095 79.905702 355.203664 80.921066 355.203664 82.506968 C 355.203664 84.982523 353.685453 88.792556 350.6587 93.946739 C 347.631948 99.091251 342.883911 103.771597 336.41459 108.007117 C 329.945269 112.213626 321.783674 114.321715 311.920136 114.321715 C 302.588454 114.321715 294.407519 112.097584 287.35799 107.649322 C 280.308461 103.201059 274.873845 97.089533 271.044471 89.305074 C 267.224767 81.510944 265.31008 72.633759 265.31008 62.683189 C 265.31008 52.848661 267.224767 44.23257 271.044471 36.834916 C 274.873845 29.446932 280.327801 23.751222 287.416011 19.757456 C 294.513891 15.734679 302.762517 13.723291 312.171559 13.723291 Z M 312.171559 13.723291 " stroke="#343334" stroke-width="4.9509" stroke-opacity="1" stroke-miterlimit="4"/><g fill="#343334" fill-opacity="1"><g transform="translate(66.229234, 206.591093)"><g><path d="M 2.296875 0 C 2.003906 0 1.769531 -0.0976562 1.59375 -0.296875 C 1.414062 -0.492188 1.328125 -0.769531 1.328125 -1.125 C 1.328125 -1.375 1.382812 -1.65625 1.5 -1.96875 L 14.40625 -38.34375 C 14.582031 -38.800781 14.773438 -39.117188 14.984375 -39.296875 C 15.203125 -39.472656 15.539062 -39.5625 16 -39.5625 L 26.5 -39.5625 C 26.925781 -39.5625 27.304688 -39.425781 27.640625 -39.15625 C 27.984375 -38.894531 28.242188 -38.550781 28.421875 -38.125 L 41.21875 -1.8125 C 41.289062 -1.53125 41.328125 -1.316406 41.328125 -1.171875 C 41.328125 -0.847656 41.253906 -0.570312 41.109375 -0.34375 C 40.972656 -0.113281 40.757812 0 40.46875 0 L 30.03125 0 C 29.414062 0 29.019531 -0.300781 28.84375 -0.90625 L 26.765625 -7.046875 C 26.660156 -7.285156 26.5625 -7.445312 26.46875 -7.53125 C 26.382812 -7.625 26.21875 -7.671875 25.96875 -7.671875 L 14.671875 -7.671875 C 14.242188 -7.671875 13.972656 -7.476562 13.859375 -7.09375 L 11.671875 -0.796875 C 11.460938 -0.265625 11.039062 0 10.40625 0 Z M 23.296875 -16.75 C 23.691406 -16.75 23.890625 -16.925781 23.890625 -17.28125 C 23.890625 -17.351562 23.851562 -17.53125 23.78125 -17.8125 L 20.578125 -26.9375 C 20.515625 -27.113281 20.410156 -27.203125 20.265625 -27.203125 C 20.117188 -27.203125 20.007812 -27.113281 19.9375 -26.9375 L 16.6875 -17.859375 C 16.613281 -17.722656 16.578125 -17.546875 16.578125 -17.328125 C 16.578125 -16.941406 16.789062 -16.75 17.21875 -16.75 Z M 23.296875 -16.75 "/></g></g></g><g fill="#343334" fill-opacity="1"><g transform="translate(108.838085, 206.591093)"><g><path d="M 37.015625 -39.5625 C 37.546875 -39.5625 37.8125 -39.257812 37.8125 -38.65625 L 37.8125 -0.953125 C 37.8125 -0.671875 37.691406 -0.441406 37.453125 -0.265625 C 37.222656 -0.0859375 36.929688 0 36.578125 0 L 29.28125 0 C 28.957031 0 28.695312 -0.0507812 28.5 -0.15625 C 28.300781 -0.257812 28.082031 -0.472656 27.84375 -0.796875 L 13.171875 -20.6875 C 13.023438 -20.863281 12.898438 -20.929688 12.796875 -20.890625 C 12.691406 -20.859375 12.640625 -20.753906 12.640625 -20.578125 L 12.640625 -1.171875 C 12.671875 -0.742188 12.585938 -0.441406 12.390625 -0.265625 C 12.203125 -0.0859375 11.859375 0 11.359375 0 L 4.109375 0 C 3.210938 0 2.765625 -0.351562 2.765625 -1.0625 L 2.765625 -38.34375 C 2.765625 -39.15625 3.160156 -39.5625 3.953125 -39.5625 L 12.640625 -39.5625 C 13.097656 -39.5625 13.441406 -39.5 13.671875 -39.375 C 13.910156 -39.257812 14.171875 -39.003906 14.453125 -38.609375 L 27.25 -20.796875 C 27.46875 -20.472656 27.664062 -20.3125 27.84375 -20.3125 C 28.019531 -20.3125 28.109375 -20.546875 28.109375 -21.015625 L 28.109375 -38.453125 C 28.109375 -39.191406 28.5 -39.5625 29.28125 -39.5625 Z M 37.015625 -39.5625 "/></g></g></g><g fill="#343334" fill-opacity="1"><g transform="translate(149.420486, 206.591093)"><g><path d="M 13.921875 -39.5625 C 14.554688 -39.5625 14.875 -39.191406 14.875 -38.453125 L 14.875 -1.546875 C 14.875 -0.972656 14.734375 -0.570312 14.453125 -0.34375 C 14.171875 -0.113281 13.726562 0 13.125 0 L 4.21875 0 C 3.675781 0 3.296875 -0.101562 3.078125 -0.3125 C 2.867188 -0.53125 2.765625 -0.867188 2.765625 -1.328125 L 2.765625 -38.34375 C 2.765625 -38.726562 2.851562 -39.023438 3.03125 -39.234375 C 3.21875 -39.453125 3.46875 -39.5625 3.78125 -39.5625 Z M 13.921875 -39.5625 "/></g></g></g></svg>